<svg width="30" height="30" viewBox="0 0 30 30" fill="none" xmlns="http://www.w3.org/2000/svg">
<g filter="url(#filter0_i_776_2630)">
<circle cx="15" cy="15" r="15" fill="#51A0C1"/>
</g>
<path fill-rule="evenodd" clip-rule="evenodd" d="M22.7202 7.09238C22.5873 7.14487 19.2596 8.51224 15.3253 10.131C11.391 11.7497 7.63685 13.2941 6.98283 13.5629C5.63596 14.1167 5.38717 14.2408 5.18156 14.4616C4.87235 14.7938 4.96168 15.1385 5.4221 15.39C5.48341 15.4235 6.32788 15.715 7.29869 16.0379C8.2695 16.3608 9.2745 16.6964 9.53199 16.7837L10.0002 16.9423L11.7511 15.7634C17.3778 11.9749 20.158 10.1187 20.2669 10.078C20.4377 10.014 20.586 10.0202 20.655 10.0944C20.7034 10.1464 20.7054 10.1725 20.6669 10.2489C20.6357 10.311 13.1238 17.5947 12.4712 18.1957C12.465 18.2015 12.3943 19.2096 12.3143 20.4361C12.2342 21.6625 12.1635 22.7352 12.1571 22.8199L12.1454 22.9738L12.314 22.9494C12.4067 22.936 12.5534 22.8847 12.6399 22.8354C12.7265 22.7861 13.3091 22.2191 13.9347 21.5755C14.5603 20.9318 15.094 20.3962 15.1208 20.3851C15.1476 20.3741 16.1434 21.1319 17.3337 22.0692C18.524 23.0065 19.5917 23.8198 19.7062 23.8765C20.0023 24.0231 20.3214 24.0403 20.5488 23.9221C20.7655 23.8094 20.9749 23.4794 21.0597 23.117C21.0921 22.9785 21.3623 21.6347 21.6602 20.1309C21.958 18.6271 22.2512 17.1542 22.3117 16.8578C22.3722 16.5614 22.5547 15.6453 22.7172 14.822C22.8798 13.9987 23.2348 12.2203 23.5062 10.8701C23.9431 8.6963 23.9996 8.37164 24 8.03585C24.0003 7.70788 23.9876 7.62964 23.9058 7.45703C23.8481 7.33528 23.7497 7.21098 23.6535 7.13833C23.4336 6.97219 23.0696 6.95426 22.7202 7.09238Z" fill="white"/>
<defs>
<filter id="filter0_i_776_2630" x="0" y="0" width="30" height="30" filterUnits="userSpaceOnUse" color-interpolation-filters="sRGB">
<feFlood flood-opacity="0" result="BackgroundImageFix"/>
<feBlend mode="normal" in="SourceGraphic" in2="BackgroundImageFix" result="shape"/>
<feColorMatrix in="SourceAlpha" type="matrix" values="0 0 0 0 0 0 0 0 0 0 0 0 0 0 0 0 0 0 127 0" result="hardAlpha"/>
<feOffset/>
<feGaussianBlur stdDeviation="10"/>
<feComposite in2="hardAlpha" operator="arithmetic" k2="-1" k3="1"/>
<feColorMatrix type="matrix" values="0 0 0 0 1 0 0 0 0 1 0 0 0 0 1 0 0 0 0.25 0"/>
<feBlend mode="normal" in2="shape" result="effect1_innerShadow_776_2630"/>
</filter>
</defs>
</svg>
